# xmcd CD database file
#
# Track frame offsets:
#	150
#	18601
#	38501
#	60908
#	83853
#	111221
#	131985
#	157450
#	182703
#	201223
#	223196
#
# Disc length: 3395 seconds
#
# Revision: 0
# Processed by: cddbd v1.5.2PL0 Copyright (c) Steve Scherf et al.
# Submitted via: jetAudio 7
#
DISCID=a00d410b
DTITLE=Arietta Discs Musicproduction Sampler - The Beauty of Blue
DYEAR=1900
DGENRE=Pop
TTITLE0=Nothing Like You've Ever Known
TTITLE1=The Old Country
TTITLE2=All In Love Is Fair
TTITLE3=Cry Me A River
TTITLE4=Hymn To Freedom
TTITLE5=The Nearness Of You
TTITLE6=A Certain Sadness
TTITLE7=I Wish You Love
TTITLE8=There Goes My Heart
TTITLE9=Sa Lange Skutan Kan Ga
TTITLE10=I'll Close My Eyes
EXTD=
EXTT0=Andrew L. Webber, D. Black
EXTT1=Adderley, Lewis
EXTT2=Wonder
EXTT3=Hamilton
EXTT4=Peterson
EXTT5=Carmichael, Washington
EXTT6=C. Lyra, J. Court
EXTT7=Trenet
EXTT8=A. Silver, B. Davies
EXTT9=E. Taube
EXTT10=Kaye, Reid
PLAYORDER=
